<?xml version="1.0" encoding="utf-8"?>
<!-- Generator: Adobe Illustrator 22.1.0, SVG Export Plug-In . SVG Version: 6.00 Build 0)  -->
<svg version="1.1" id="Layer_1" xmlns="http://www.w3.org/2000/svg" xmlns:xlink="http://www.w3.org/1999/xlink" x="0px" y="0px"
	 viewBox="0 0 576 184.1" style="enable-background:new 0 0 576 184.1;" xml:space="preserve">
<style type="text/css">
	.st0{fill:#4598CC;}
	.st1{fill:#EE2737;}
	.st2{fill:none;stroke:#EE2737;stroke-width:1.5;stroke-linecap:round;stroke-miterlimit:10;}
</style>
<g>
	<g>
		<path class="st0" d="M127.8,83.8c-3.2,2.1-7.3,3.1-12.1,3.1c-4.3,0-7.9-0.8-11.1-2.5c-3.1-1.7-5.5-4.1-7.2-7.3
			c-1.7-3.2-2.5-7-2.5-11.5s0.8-8.2,2.5-11.4c1.7-3.2,4.1-5.6,7.1-7.3s6.8-2.5,11-2.5c4.7,0,8.7,1,12,3c3.3,2,5.4,5,6.3,9l-11.1,4.4
			c-0.5-2.5-1.2-4.3-2.3-5.2c-1-0.9-2.6-1.4-4.6-1.4c-2.5,0-4.5,1-5.9,2.9c-1.4,1.9-2,4.8-2,8.6c0,7.7,2.6,11.5,7.8,11.5
			c2.1,0,3.7-0.5,4.8-1.5c1.1-1,1.8-2.6,2.2-4.7l11.4,3.1C133.2,78.5,131,81.7,127.8,83.8z"/>
		<path class="st0" d="M223.3,57.2c1.8,1.9,2.8,4.5,2.8,8v21.2h-12.7v-18c0-1.6-0.3-2.7-0.8-3.4c-0.5-0.7-1.3-1-2.3-1
			c-1.3,0-2.4,0.5-3.1,1.5c-0.7,1-1.1,2.5-1.1,4.4v16.5h-12.7v-18c0-1.6-0.3-2.7-0.8-3.4c-0.5-0.7-1.3-1-2.3-1
			c-1.3,0-2.3,0.5-3.1,1.5s-1.1,2.5-1.1,4.5v16.5h-12.7V55h11.4l0.3,6.5c1-2.3,2.4-4.1,4.2-5.3c1.8-1.2,4-1.8,6.5-1.8
			c2.4,0,4.4,0.5,6,1.6c1.7,1.1,2.8,2.7,3.5,4.7c1-2,2.3-3.6,4.1-4.7c1.8-1.1,3.9-1.6,6.3-1.6C219,54.4,221.5,55.3,223.3,57.2z"/>
		<path class="st0" d="M282,57.2c1.8,1.9,2.8,4.5,2.8,8v21.2h-12.7v-18c0-1.6-0.3-2.7-0.8-3.4c-0.5-0.7-1.3-1-2.3-1
			c-1.3,0-2.4,0.5-3.1,1.5c-0.7,1-1.1,2.5-1.1,4.4v16.5h-12.7v-18c0-1.6-0.3-2.7-0.8-3.4c-0.5-0.7-1.3-1-2.3-1
			c-1.3,0-2.3,0.5-3.1,1.5s-1.1,2.5-1.1,4.5v16.5h-12.7V55h11.4l0.3,6.5c1-2.3,2.4-4.1,4.2-5.3c1.8-1.2,4-1.8,6.5-1.8
			c2.4,0,4.4,0.5,6,1.6c1.7,1.1,2.8,2.7,3.5,4.7c1-2,2.3-3.6,4.1-4.7c1.8-1.1,3.9-1.6,6.3-1.6C277.7,54.4,280.2,55.3,282,57.2z"/>
		<path class="st0" d="M353.7,57.2c1.8,1.9,2.7,4.5,2.7,8v21.2h-12.7V68.5c0-1.7-0.3-2.9-0.8-3.6c-0.5-0.7-1.3-1.1-2.4-1.1
			c-1.3,0-2.4,0.5-3.1,1.5c-0.8,1-1.1,2.5-1.1,4.5v16.5h-12.7V55H335l0.3,6.5c0.9-2.3,2.3-4.1,4.1-5.3c1.8-1.2,4.1-1.8,6.6-1.8
			C349.3,54.4,351.8,55.3,353.7,57.2z"/>
		<path class="st0" d="M405.1,83.8c-3.2,2.1-7.3,3.1-12.1,3.1c-4.3,0-7.9-0.8-11.1-2.5c-3.1-1.7-5.5-4.1-7.2-7.3
			c-1.7-3.2-2.5-7-2.5-11.5s0.8-8.2,2.5-11.4c1.7-3.2,4.1-5.6,7.1-7.3c3.1-1.7,6.8-2.5,11-2.5c4.7,0,8.7,1,12,3c3.3,2,5.4,5,6.3,9
			l-11.1,4.4c-0.5-2.5-1.2-4.3-2.3-5.2c-1-0.9-2.6-1.4-4.6-1.4c-2.5,0-4.5,1-5.9,2.9c-1.4,1.9-2,4.8-2,8.6c0,7.7,2.6,11.5,7.8,11.5
			c2.1,0,3.7-0.5,4.8-1.5c1.1-1,1.8-2.6,2.2-4.7l11.4,3.1C410.5,78.5,408.3,81.7,405.1,83.8z"/>
		<path class="st0" d="M446.4,79.4c-1.5,0-2.2-0.8-2.2-2.5v-10c0-8.3-5.2-12.5-15.7-12.5c-4.6,0-8.2,0.9-10.8,2.8
			c-2.6,1.8-4.1,4.4-4.5,7.8l10.4,2.2c0.2-1.6,0.6-2.7,1.4-3.4c0.8-0.6,1.8-1,3.1-1c1.1,0,2,0.3,2.6,1c0.6,0.7,0.9,1.6,0.9,2.8v1.2
			l-6.6,1.4c-4.4,0.9-7.5,2.1-9.4,3.8c-1.9,1.6-2.8,3.8-2.8,6.4c0,2.5,0.8,4.4,2.5,5.7c1.6,1.3,4.1,2,7.2,2c2.8,0,5.1-0.4,7-1.3
			c1.9-0.9,3.2-2.1,4.2-3.7c0.5,1.7,1.5,2.9,3.1,3.8c1.6,0.9,3.5,1.3,5.9,1.3c1.6,0,3.1-0.4,4.4-1.1l1-6.7
			C447.7,79.3,447.1,79.4,446.4,79.4z M432.2,75.9c0,1.3-0.5,2.3-1.4,3.1c-0.9,0.7-1.9,1.1-3.1,1.1c-0.9,0-1.6-0.2-2.2-0.7
			c-0.6-0.5-0.9-1.2-0.9-2.1c0-1.8,1.2-3.1,3.6-3.7l4-1V75.9z"/>
		<path class="st0" d="M483.8,55v31.3h-11.4l-0.3-6.2c-1.9,4.6-5.5,6.8-10.7,6.8c-6.9,0-10.4-3.6-10.4-10.9V55h12.7v17.9
			c0,1.7,0.3,2.8,0.8,3.5c0.5,0.7,1.3,1,2.5,1c1.3,0,2.4-0.5,3.1-1.5c0.8-1,1.1-2.5,1.1-4.5V55H483.8z"/>
		<path class="st0" d="M493.4,85.8c-2.6-0.8-4.8-2.1-6.5-3.9l6-6.9c1.1,1.3,2.4,2.3,4,3c1.6,0.7,3.3,1,5.3,1c1.1,0,2-0.1,2.6-0.4
			c0.7-0.3,1-0.6,1-1.1c0-0.5-0.4-0.9-1.1-1.2c-0.8-0.4-2.1-0.7-4-1.2c-4.6-0.9-7.9-2.1-9.9-3.8s-3-3.7-3-6.3c0-1.8,0.6-3.5,1.8-5.1
			c1.2-1.6,3-3,5.4-4c2.4-1,5.4-1.5,8.9-1.5c6.8,0,11.7,1.7,14.7,5.2l-5.7,6.2c-2-2.3-4.8-3.4-8.5-3.4c-1.3,0-2.3,0.2-2.9,0.5
			c-0.7,0.3-1,0.7-1,1.2c0,0.4,0.4,0.8,1.1,1.1s2,0.6,3.7,0.9c4.7,0.7,8.1,1.9,10.2,3.5c2.1,1.6,3.2,3.8,3.2,6.7
			c0,3.1-1.3,5.7-3.9,7.7c-2.6,2-6.5,3-11.7,3C499.1,87,496,86.6,493.4,85.8z"/>
		<path class="st0" d="M554.1,69.9c0-4.8-1.4-8.6-4.2-11.4c-2.8-2.8-6.8-4.2-12-4.2c-5.3,0-9.5,1.4-12.4,4.3
			c-2.9,2.8-4.4,6.9-4.4,12c0,5.2,1.5,9.2,4.5,12.1c3,2.8,7.4,4.2,13,4.2c3.8,0,7.1-0.7,9.7-2.2c2.7-1.5,4.4-3.6,5.2-6.5l-10.2-2.9
			c-0.2,0.8-0.9,4.1-5.6,3.8c-1.3-0.1-2.2-0.5-3-1.3c-1.2-1.1-1.5-3.7-1.5-5.3h20.6C553.8,72.5,554.1,71.4,554.1,69.9z M533.1,67.6
			c0.3-1.6,0.8-3,1.7-3.8c0.9-0.9,1.9-1.5,3.3-1.5c1.4,0,2.7,0.6,3.5,1.6c0.7,0.9,1.2,2.3,1.4,3.8L533.1,67.6z"/>
		<path class="st0" d="M316.6,58.7c-3-2.9-7.2-4.3-12.6-4.3c-5.4,0-9.6,1.4-12.6,4.3c-3,2.9-4.5,6.9-4.5,12s1.5,9.1,4.5,12
			c3,2.9,7.2,4.3,12.6,4.3c5.4,0,9.6-1.4,12.6-4.3c3-2.9,4.5-6.9,4.5-12S319.6,61.5,316.6,58.7z M308,77c-0.8,1.4-2.2,2.1-4.1,2.1
			s-3.3-0.7-4.1-2.1c-0.7-1.2-1.1-3.3-1.1-6.4s0.4-5.1,1.1-6.4c0.8-1.4,2.2-2.1,4.1-2.1s3.3,0.7,4.1,2.1c0.7,1.3,1.1,3.3,1.1,6.4
			C309.1,73.7,308.7,75.8,308,77z"/>
		<path class="st0" d="M165.9,58.7c-3-2.9-7.2-4.3-12.6-4.3c-5.4,0-9.6,1.4-12.6,4.3c-3,2.9-4.5,6.9-4.5,12s1.5,9.1,4.5,12
			c3,2.9,7.2,4.3,12.6,4.3c5.4,0,9.6-1.4,12.6-4.3c3-2.9,4.5-6.9,4.5-12S168.9,61.5,165.9,58.7z M157.3,77c-0.8,1.4-2.2,2.1-4.1,2.1
			c-1.9,0-3.3-0.7-4.1-2.1c-0.7-1.2-1.1-3.3-1.1-6.4s0.4-5.1,1.1-6.4c0.8-1.4,2.2-2.1,4.1-2.1c1.9,0,3.3,0.7,4.1,2.1
			c0.7,1.3,1.1,3.3,1.1,6.4C158.4,73.7,158,75.8,157.3,77z"/>
	</g>
	<path class="st1" d="M61.4,57.1l25-10.6c0,0-21.3-8.6-42.6,5.6c-19,12.6-26.3,27.5-26.3,27.5S35.6,59.1,61.4,57.1z"/>
	<path class="st0" d="M49.2,18.3L41,43.7l-26.7-0.1l18.2,13.2c7.6-7,15.9-11.8,24.5-14.3L49.2,18.3z"/>
	<path class="st0" d="M49,62.9c-5.8,2.1-11.5,4.7-16.5,8.7l-4.8,14.8l21.6-15.7l21.6,15.7l-8.4-25.9C62.4,60.5,55.7,60.5,49,62.9z"
		/>
	<g>
		<path class="st1" d="M320.3,152.2h-3.7v-14.5l0.3-6.9h0l-7.6,21.4h-3.4l-7.6-21.4h0l0.3,6.9v14.5h-3.8v-25h6l5,14.5l1.7,5.9h0.1
			l1.8-5.9l5-14.5h5.9V152.2z"/>
		<path class="st1" d="M343.8,149.4l-0.3,2.7c-0.7,0.3-1.5,0.5-2.3,0.5c-1.1,0-2-0.2-2.6-0.6c-0.6-0.4-1.1-1.1-1.3-2.2
			c-0.6,0.9-1.4,1.6-2.6,2.1c-1.1,0.5-2.4,0.7-3.8,0.7c-1.8,0-3.3-0.4-4.5-1.3c-1.1-0.9-1.7-2.1-1.7-3.7c0-1.5,0.6-2.7,1.9-3.8
			c1.2-1,3.1-1.7,5.5-2.2l4.8-0.8v-1c0-1.2-0.3-2.1-1-2.7s-1.6-1-2.8-1c-2.5,0-4.1,1.1-4.9,3.4l-3.1-1.7c0.5-1.5,1.4-2.7,2.8-3.6
			c1.4-0.9,3.1-1.3,5.2-1.3c2.4,0,4.4,0.6,5.8,1.7c1.4,1.1,2.2,2.8,2.2,5v8.6c0,0.5,0.1,0.8,0.3,1.1c0.2,0.2,0.6,0.3,1.1,0.3
			C343,149.6,343.4,149.5,343.8,149.4z M335.4,148.5c1-0.7,1.6-1.5,1.6-2.6v-2.3l-4.1,0.8c-1.3,0.3-2.3,0.6-2.9,1.1
			c-0.6,0.5-0.9,1.1-0.9,1.8c0,0.7,0.2,1.2,0.7,1.6c0.5,0.4,1.2,0.5,2.1,0.5C333.2,149.5,334.4,149.2,335.4,148.5z"/>
		<path class="st1" d="M348.4,151.6c-1.5-0.7-2.6-1.7-3.4-3l2.7-2.3c0.5,1.1,1.2,1.9,2.2,2.4c1,0.5,2.2,0.8,3.6,0.8
			c1.3,0,2.3-0.2,3-0.6c0.7-0.4,1.1-1,1.1-1.6c0-0.6-0.3-1.1-1-1.5c-0.7-0.4-1.8-0.7-3.4-1c-2.8-0.5-4.8-1.2-5.9-2.1
			s-1.7-2.1-1.7-3.8c0-1,0.3-2,0.9-2.9c0.6-0.9,1.5-1.6,2.7-2.2c1.2-0.5,2.6-0.8,4.3-0.8c2.1,0,3.8,0.3,5,1c1.3,0.7,2.2,1.8,2.9,3.2
			l-2.9,2.1c-0.5-1.1-1.1-1.9-1.9-2.4c-0.8-0.5-1.9-0.8-3.1-0.8c-1.1,0-2.1,0.2-2.8,0.7c-0.7,0.5-1.1,1-1.1,1.6c0,0.7,0.3,1.2,1,1.6
			c0.7,0.4,1.9,0.8,3.7,1.1c2.7,0.5,4.6,1.2,5.7,2c1.1,0.9,1.7,2.1,1.7,3.7c0,1.7-0.7,3.1-2.2,4.1s-3.5,1.6-6.1,1.6
			C351.6,152.6,349.9,152.3,348.4,151.6z"/>
		<path class="st1" d="M367.5,151.6c-1.5-0.7-2.6-1.7-3.4-3l2.7-2.3c0.5,1.1,1.2,1.9,2.2,2.4c1,0.5,2.2,0.8,3.6,0.8
			c1.3,0,2.3-0.2,3-0.6c0.7-0.4,1.1-1,1.1-1.6c0-0.6-0.3-1.1-1-1.5c-0.7-0.4-1.8-0.7-3.4-1c-2.8-0.5-4.8-1.2-5.9-2.1
			s-1.7-2.1-1.7-3.8c0-1,0.3-2,0.9-2.9c0.6-0.9,1.5-1.6,2.7-2.2c1.2-0.5,2.6-0.8,4.3-0.8c2.1,0,3.8,0.3,5,1c1.3,0.7,2.2,1.8,2.9,3.2
			l-2.9,2.1c-0.5-1.1-1.1-1.9-1.9-2.4c-0.8-0.5-1.9-0.8-3.1-0.8c-1.1,0-2.1,0.2-2.8,0.7c-0.7,0.5-1.1,1-1.1,1.6c0,0.7,0.3,1.2,1,1.6
			c0.7,0.4,1.9,0.8,3.7,1.1c2.7,0.5,4.6,1.2,5.7,2c1.1,0.9,1.7,2.1,1.7,3.7c0,1.7-0.7,3.1-2.2,4.1s-3.5,1.6-6.1,1.6
			C370.7,152.6,369,152.3,367.5,151.6z"/>
		<path class="st1" d="M402.6,149.4l-0.3,2.7c-0.7,0.3-1.5,0.5-2.3,0.5c-1.1,0-2-0.2-2.6-0.6c-0.6-0.4-1.1-1.1-1.3-2.2
			c-0.6,0.9-1.4,1.6-2.6,2.1c-1.1,0.5-2.4,0.7-3.8,0.7c-1.8,0-3.3-0.4-4.5-1.3c-1.1-0.9-1.7-2.1-1.7-3.7c0-1.5,0.6-2.7,1.9-3.8
			c1.2-1,3.1-1.7,5.5-2.2l4.8-0.8v-1c0-1.2-0.3-2.1-1-2.7c-0.7-0.7-1.6-1-2.8-1c-2.5,0-4.1,1.1-4.9,3.4l-3.1-1.7
			c0.5-1.5,1.4-2.7,2.8-3.6c1.4-0.9,3.1-1.3,5.2-1.3c2.4,0,4.4,0.6,5.8,1.7c1.4,1.1,2.2,2.8,2.2,5v8.6c0,0.5,0.1,0.8,0.3,1.1
			c0.2,0.2,0.6,0.3,1.1,0.3C401.8,149.6,402.3,149.5,402.6,149.4z M394.2,148.5c1-0.7,1.6-1.5,1.6-2.6v-2.3l-4.1,0.8
			c-1.3,0.3-2.3,0.6-2.9,1.1c-0.6,0.5-0.9,1.1-0.9,1.8c0,0.7,0.2,1.2,0.7,1.6c0.5,0.4,1.2,0.5,2.1,0.5
			C392,149.5,393.2,149.2,394.2,148.5z"/>
		<path class="st1" d="M422,138.2l-3.8,1.5c-0.7-2.4-2.1-3.6-4.4-3.6c-1.7,0-3,0.6-3.9,1.7c-0.9,1.2-1.4,2.8-1.4,4.9
			c0,2.1,0.5,3.8,1.4,4.9s2.2,1.7,3.9,1.7c1.3,0,2.3-0.3,3.1-0.9c0.8-0.6,1.3-1.5,1.6-2.7l3.7,1.3c-0.6,1.8-1.5,3.2-3,4.1
			c-1.4,1-3.2,1.5-5.3,1.5c-3,0-5.3-0.9-7-2.6c-1.7-1.7-2.5-4.2-2.5-7.2c0-3.1,0.8-5.5,2.5-7.2c1.7-1.7,4-2.6,6.9-2.6
			C418,132.9,420.7,134.7,422,138.2z"/>
		<path class="st1" d="M441.3,134.7c1.3,1.2,2,3,2,5.2v12.3h-4.1v-11c0-3.3-1.4-5-4.1-5c-1.4,0-2.6,0.5-3.6,1.5
			c-1,1-1.5,2.5-1.5,4.5v10H426v-27.5h4.1v11.6c0.6-1.2,1.5-2,2.5-2.6c1-0.6,2.3-0.8,3.6-0.8C438.3,132.9,440,133.5,441.3,134.7z"/>
		<path class="st1" d="M465.6,133.3v18.9H462l-0.2-3.1c-1.3,2.3-3.5,3.4-6.7,3.4c-2,0-3.7-0.6-4.9-1.7s-1.9-2.8-1.9-5.2v-12.5h4.1
			v11.4c0,1.7,0.3,2.8,1,3.5c0.7,0.7,1.6,1,2.9,1c1.5,0,2.8-0.5,3.8-1.5c1-1,1.5-2.4,1.5-4.3v-10.2H465.6z"/>
		<path class="st1" d="M472.8,151.6c-1.5-0.7-2.6-1.7-3.4-3l2.7-2.3c0.5,1.1,1.2,1.9,2.2,2.4c1,0.5,2.2,0.8,3.6,0.8
			c1.3,0,2.3-0.2,3-0.6c0.7-0.4,1.1-1,1.1-1.6c0-0.6-0.3-1.1-1-1.5c-0.7-0.4-1.8-0.7-3.4-1c-2.8-0.5-4.8-1.2-5.9-2.1
			s-1.7-2.1-1.7-3.8c0-1,0.3-2,0.9-2.9c0.6-0.9,1.5-1.6,2.7-2.2c1.2-0.5,2.6-0.8,4.3-0.8c2.1,0,3.8,0.3,5,1c1.3,0.7,2.2,1.8,2.9,3.2
			l-2.9,2.1c-0.5-1.1-1.1-1.9-1.9-2.4c-0.8-0.5-1.9-0.8-3.1-0.8c-1.1,0-2.1,0.2-2.8,0.7c-0.7,0.5-1.1,1-1.1,1.6c0,0.7,0.3,1.2,1,1.6
			c0.7,0.4,1.9,0.8,3.7,1.1c2.7,0.5,4.6,1.2,5.7,2c1.1,0.9,1.7,2.1,1.7,3.7c0,1.7-0.7,3.1-2.2,4.1s-3.5,1.6-6.1,1.6
			C475.9,152.6,474.2,152.3,472.8,151.6z"/>
		<path class="st1" d="M506.8,144.3H493c0.2,1.7,0.8,2.9,1.8,3.8c1,0.9,2.2,1.3,3.7,1.3c1.2,0,2.3-0.2,3.1-0.7
			c0.8-0.4,1.4-1.1,1.7-1.9l3.4,1.4c-1.4,2.9-4.1,4.4-8.1,4.4c-3,0-5.3-0.9-7-2.6c-1.7-1.7-2.5-4.2-2.5-7.2c0-3.1,0.8-5.5,2.4-7.3
			c1.6-1.7,3.9-2.6,6.8-2.6c2.8,0,4.9,0.8,6.5,2.5c1.5,1.7,2.3,3.9,2.3,6.7C507,142.9,506.9,143.6,506.8,144.3z M494.6,137.4
			c-0.9,0.9-1.5,2.1-1.7,3.8h10.2c-0.2-1.6-0.7-2.8-1.6-3.7c-0.9-0.9-2-1.3-3.4-1.3C496.7,136.1,495.5,136.5,494.6,137.4z"/>
		<path class="st1" d="M536.6,151c-0.6,0.5-1.3,0.9-2.2,1.2s-1.8,0.4-2.8,0.4c-1.7,0-3.1-0.4-4.2-1.3c-1-0.9-1.6-2.2-1.6-4.1v-10.8
			h-9.7v10.1c0,0.9,0.2,1.6,0.7,2c0.5,0.4,1.1,0.7,2,0.7c1.2,0,2.2-0.4,3-1.2l1,3c-0.6,0.5-1.3,0.9-2.2,1.2
			c-0.9,0.3-1.8,0.4-2.8,0.4c-1.7,0-3.1-0.4-4.1-1.3c-1-0.9-1.6-2.2-1.6-4.1v-10.8h-3.6v-3.2h3.6v-4.4l4.1-1.1v5.6h9.7v-4.4l4.1-1.1
			v5.6h6.6v3.2h-6.6v10.1c0,0.9,0.2,1.6,0.7,2c0.5,0.4,1.1,0.7,2,0.7c0.6,0,1.2-0.1,1.7-0.3c0.5-0.2,1-0.5,1.4-0.9L536.6,151z"/>
		<path class="st1" d="M541.2,151.6c-1.5-0.7-2.6-1.7-3.4-3l2.7-2.3c0.5,1.1,1.2,1.9,2.2,2.4c1,0.5,2.2,0.8,3.6,0.8
			c1.3,0,2.3-0.2,3-0.6c0.7-0.4,1.1-1,1.1-1.6c0-0.6-0.3-1.1-1-1.5c-0.7-0.4-1.8-0.7-3.4-1c-2.8-0.5-4.8-1.2-5.9-2.1
			s-1.7-2.1-1.7-3.8c0-1,0.3-2,0.9-2.9c0.6-0.9,1.5-1.6,2.7-2.2c1.2-0.5,2.6-0.8,4.3-0.8c2.1,0,3.8,0.3,5,1c1.3,0.7,2.2,1.8,2.9,3.2
			l-2.9,2.1c-0.5-1.1-1.1-1.9-1.9-2.4c-0.8-0.5-1.9-0.8-3.1-0.8c-1.1,0-2.1,0.2-2.8,0.7c-0.7,0.5-1.1,1-1.1,1.6c0,0.7,0.3,1.2,1,1.6
			c0.7,0.4,1.9,0.8,3.7,1.1c2.7,0.5,4.6,1.2,5.7,2c1.1,0.9,1.7,2.1,1.7,3.7c0,1.7-0.7,3.1-2.2,4.1s-3.5,1.6-6.1,1.6
			C544.4,152.6,542.7,152.3,541.2,151.6z"/>
	</g>
	<line class="st2" x1="95.6" y1="108.6" x2="554.3" y2="108.6"/>
</g>
</svg>
