<svg xmlns="http://www.w3.org/2000/svg" viewBox="0 0 374.8 103.29"><defs><style>.cls-1{fill:#c9262d;}.cls-2{fill:#fff;}.cls-3{fill:#396aa6;}</style></defs><title>MIRA_logo_final</title><g id="Layer_2" data-name="Layer 2"><g id="Layer_1-2" data-name="Layer 1"><path class="cls-1" d="M147.51,3.51,149.27,11l2.37,6.72,3.77.74a13.83,13.83,0,0,1,1.18-1.76c.87-1.17,3.36.3,3.87,1.1s-2,6.09-2,6.09l-7,2.2-4,1.15s.88,3.37.29,4.83-6.43,4-6.43,4,1.1,2.64.29,3.66-3.81,4.68-3.81,4.68l5.71,4.39,2.63-2.19,4.4-.44,5.7,8.34,3.08,8.78v4.83l2.92,2.78,2.34.73,2.64,7,1,3.21,6,1.18A44.2,44.2,0,0,1,179,84.73c1,.59,5-1.75,5-1.75h4.83l2.63-3.52s2.2-.22,2.49-2-1.17-4.82-1.17-4.82L190,69.51l-1-4.68s-2.4-2.9-3.08-2.34c-2.48,2.05-4.53-1.25-4.53-1.25s2.63-2.56,3.51-2.85,5.27,1.32,6.73,3.8c1.06,1.8,3.57,3.74,4.24,6.15.49,1.74,4.83,14.64,4.83,14.64s-1.24,7.75-1.9,8.63-4.68.58-4.68.58l-3.71-2.34-13.85,4.54-12.73,5.27s-6.44,4.39-7,3.51,3.07-10.54,3.07-10.54l-.87-7.9-5.27,5s-7.61,9.15-8.78,10.32a14.49,14.49,0,0,1-7,3.07c-2.19.12-3.95-2.19-3.95-2.19l-1.1-9s-9.65-8.53-10.49-10-.48-6-.48-6l-2.2-3.51-.22-6.59H3.51L0,63.66,12.73,14.49l110,.22,4.83-3.51s2.26-3.88,2.85-4.61,4.17-.66,4.17-.66S140.34,0,141.37,0,147.18,2.1,147.51,3.51Z"/><path class="cls-2" d="M27.55,26.44h6.34l7.85,15.48,7.77-15.48h6.3v25.2H50.7v-17L43.54,49.09H39.86l-7.2-14.48v17H27.55Z"/><path class="cls-2" d="M63.19,26.44h5.69v25.2H63.19Z"/><path class="cls-2" d="M91.74,51.64l-4-7.2H82v7.2H76.26V26.44H87.2c3.29,0,5.84.77,7.64,2.29a8,8,0,0,1,2.7,6.46,9.78,9.78,0,0,1-1.21,5,7.71,7.71,0,0,1-3.51,3.15l5.36,8.31ZM82,39.69H87.2a5.41,5.41,0,0,0,3.66-1.1,4,4,0,0,0,1.28-3.22,3.87,3.87,0,0,0-1.28-3.15,5.57,5.57,0,0,0-3.66-1.06H82Z"/><path class="cls-2" d="M122.74,51.64l-2-4.89H109.09l-2,4.89h-5.87l11-25.2h5.87l10.76,25.2ZM111,42.18h8l-4-9.8Z"/><path class="cls-3" d="M175.07,9.77h2.76L182,17.88l4.14-8.11h2.76v12.6h-2.22v-9l-3.92,7.74h-1.55l-3.94-7.74v9h-2.2Z"/><path class="cls-3" d="M197.59,22.37V21.2a3.18,3.18,0,0,1-1.29.95,4.73,4.73,0,0,1-1.82.32,3.84,3.84,0,0,1-1.77-.38A2.86,2.86,0,0,1,191.53,21a2.89,2.89,0,0,1-.42-1.53,2.56,2.56,0,0,1,1-2.12,4.26,4.26,0,0,1,2.7-.78h2.8v-.25A1.62,1.62,0,0,0,197,15a2.5,2.5,0,0,0-1.62-.47,5.58,5.58,0,0,0-2.87.9l-.84-1.62a10.69,10.69,0,0,1,2.06-.91,7.8,7.8,0,0,1,2.17-.27,4.29,4.29,0,0,1,2.91.9,3.2,3.2,0,0,1,1,2.52l0,6.3Zm-.83-2.17a1.66,1.66,0,0,0,.81-1.18v-.87h-2.43a2.67,2.67,0,0,0-1.37.28,1,1,0,0,0-.44.91,1.15,1.15,0,0,0,.46,1,2,2,0,0,0,1.25.36A3,3,0,0,0,196.76,20.2Z"/><path class="cls-3" d="M206.78,14.7a4.56,4.56,0,0,0-1.38-.24,1.82,1.82,0,0,0-.94.21.7.7,0,0,0-.35.64.76.76,0,0,0,.44.69,6.53,6.53,0,0,0,1.39.52,12.12,12.12,0,0,1,1.66.6,3.18,3.18,0,0,1,1.13.88,2.4,2.4,0,0,1,.47,1.54,2.47,2.47,0,0,1-1.08,2.16,4.65,4.65,0,0,1-2.72.76,6.94,6.94,0,0,1-2.17-.35,5.22,5.22,0,0,1-1.8-1l.81-1.64a4.72,4.72,0,0,0,1.54.87,5.19,5.19,0,0,0,1.71.32,2.06,2.06,0,0,0,1-.23.72.72,0,0,0,.39-.67.82.82,0,0,0-.45-.76,8.33,8.33,0,0,0-1.46-.56,13.35,13.35,0,0,1-1.59-.56,3,3,0,0,1-1.06-.85,2.32,2.32,0,0,1-.45-1.49,2.5,2.5,0,0,1,1-2.16,4.3,4.3,0,0,1,2.6-.75,6.73,6.73,0,0,1,1.88.27,5.94,5.94,0,0,1,1.65.75l-.85,1.7A6.45,6.45,0,0,0,206.78,14.7Z"/><path class="cls-3" d="M215.46,14.7a4.56,4.56,0,0,0-1.38-.24,1.79,1.79,0,0,0-.94.21.69.69,0,0,0-.36.64.75.75,0,0,0,.45.69,6.32,6.32,0,0,0,1.39.52,13.19,13.19,0,0,1,1.66.6,3.15,3.15,0,0,1,1.12.88,2.34,2.34,0,0,1,.48,1.54,2.47,2.47,0,0,1-1.08,2.16,4.67,4.67,0,0,1-2.72.76,7.05,7.05,0,0,1-2.18-.35,5.22,5.22,0,0,1-1.8-1l.81-1.64a4.77,4.77,0,0,0,1.55.87,5.19,5.19,0,0,0,1.71.32,2.08,2.08,0,0,0,1-.23.73.73,0,0,0,.38-.67.82.82,0,0,0-.45-.76,8,8,0,0,0-1.46-.56,13.77,13.77,0,0,1-1.58-.56A2.87,2.87,0,0,1,211,17a2.32,2.32,0,0,1-.45-1.49,2.49,2.49,0,0,1,1-2.16,4.32,4.32,0,0,1,2.6-.75,6.75,6.75,0,0,1,1.89.27,6,6,0,0,1,1.64.75l-.84,1.7A6.45,6.45,0,0,0,215.46,14.7Z"/><path class="cls-3" d="M225.56,22.37V21.2a3.11,3.11,0,0,1-1.29.95,4.73,4.73,0,0,1-1.82.32,3.84,3.84,0,0,1-1.77-.38A2.86,2.86,0,0,1,219.5,21a2.89,2.89,0,0,1-.42-1.53,2.56,2.56,0,0,1,1-2.12,4.26,4.26,0,0,1,2.7-.78h2.81v-.25A1.63,1.63,0,0,0,225,15a2.46,2.46,0,0,0-1.62-.47,5.55,5.55,0,0,0-2.86.9l-.85-1.62a11,11,0,0,1,2.06-.91,7.8,7.8,0,0,1,2.17-.27,4.29,4.29,0,0,1,2.91.9,3.2,3.2,0,0,1,1,2.52l0,6.3Zm-.82-2.17a1.66,1.66,0,0,0,.81-1.18v-.87h-2.43a2.69,2.69,0,0,0-1.38.28,1,1,0,0,0-.44.91,1.15,1.15,0,0,0,.46,1,2,2,0,0,0,1.25.36A3,3,0,0,0,224.74,20.2Z"/><path class="cls-3" d="M234.6,14.72a2.46,2.46,0,0,0-1.9.79,2.89,2.89,0,0,0-.73,2,3,3,0,0,0,.73,2.09,2.46,2.46,0,0,0,1.9.79,3.06,3.06,0,0,0,2.59-1.13l1.46,1.2A4.14,4.14,0,0,1,236.94,22a5.65,5.65,0,0,1-2.47.51,5.09,5.09,0,0,1-2.52-.62,4.23,4.23,0,0,1-1.72-1.71,5.18,5.18,0,0,1-.62-2.55,5.29,5.29,0,0,1,.62-2.58A4.34,4.34,0,0,1,232,13.28a5.18,5.18,0,0,1,2.55-.62,5.83,5.83,0,0,1,2.35.46,4.21,4.21,0,0,1,1.68,1.31l-1.42,1.35A3.26,3.26,0,0,0,234.6,14.72Z"/><path class="cls-3" d="M249.16,13.65a3.71,3.71,0,0,1,1,2.7v6h-2.36V17a2.15,2.15,0,0,0-.58-1.59,2.08,2.08,0,0,0-1.56-.59,2.43,2.43,0,0,0-1.86.79,2.92,2.92,0,0,0-.68,2v4.74h-2.34V9h2.34v5.56a3.64,3.64,0,0,1,3.47-1.92A3.41,3.41,0,0,1,249.16,13.65Z"/><path class="cls-3" d="M261.64,12.74v9.63h-2.36V20.58a3.47,3.47,0,0,1-3.35,1.88,3.37,3.37,0,0,1-2.56-1,3.79,3.79,0,0,1-.93-2.7v-6h2.36v5.34a2.25,2.25,0,0,0,.54,1.59,2,2,0,0,0,1.53.57,2.2,2.2,0,0,0,1.76-.79,3,3,0,0,0,.65-2V12.74Z"/><path class="cls-3" d="M268.81,14.7a4.56,4.56,0,0,0-1.38-.24,1.82,1.82,0,0,0-.94.21.68.68,0,0,0-.35.64.74.74,0,0,0,.44.69,6.53,6.53,0,0,0,1.39.52,12.63,12.63,0,0,1,1.66.6,3.15,3.15,0,0,1,1.12.88,2.34,2.34,0,0,1,.48,1.54,2.47,2.47,0,0,1-1.08,2.16,4.67,4.67,0,0,1-2.72.76,7.05,7.05,0,0,1-2.18-.35,5.41,5.41,0,0,1-1.8-1l.81-1.64a4.87,4.87,0,0,0,1.55.87,5.19,5.19,0,0,0,1.71.32,2.08,2.08,0,0,0,1-.23.73.73,0,0,0,.38-.67.82.82,0,0,0-.45-.76,8.16,8.16,0,0,0-1.45-.56,13.35,13.35,0,0,1-1.59-.56,2.87,2.87,0,0,1-1.06-.85,2.32,2.32,0,0,1-.45-1.49,2.49,2.49,0,0,1,1-2.16,4.33,4.33,0,0,1,2.61-.75,6.73,6.73,0,0,1,1.88.27,6,6,0,0,1,1.64.75l-.84,1.7A6.45,6.45,0,0,0,268.81,14.7Z"/><path class="cls-3" d="M280.71,14a5.39,5.39,0,0,1,1.16,3.69c0,.31,0,.54,0,.7h-7.11a2.84,2.84,0,0,0,1,1.61,2.79,2.79,0,0,0,1.79.59,3.78,3.78,0,0,0,1.42-.28,3.68,3.68,0,0,0,1.18-.8l1.26,1.31A4.76,4.76,0,0,1,279.59,22a5.84,5.84,0,0,1-2.29.44,5.36,5.36,0,0,1-2.61-.62A4.25,4.25,0,0,1,273,20.13a5.17,5.17,0,0,1-.61-2.55A5.13,5.13,0,0,1,273,15a4.36,4.36,0,0,1,1.73-1.73,5.09,5.09,0,0,1,2.54-.63A4.38,4.38,0,0,1,280.71,14Zm-1,2.82a2.35,2.35,0,0,0-.71-1.69,2.45,2.45,0,0,0-1.76-.63,2.51,2.51,0,0,0-1.72.62,2.72,2.72,0,0,0-.85,1.7Z"/><path class="cls-3" d="M289.52,21.77a4.55,4.55,0,0,1-2.41.7,2.92,2.92,0,0,1-2-.72,2.8,2.8,0,0,1-.79-2.16V14.84h-1.35l0-1.71h1.37V10.49h2.32v2.64h2.76v1.71H286.6v4.34a1.48,1.48,0,0,0,.25.95,1,1,0,0,0,.76.27A3.39,3.39,0,0,0,289,20Z"/><path class="cls-3" d="M297,21.77a4.55,4.55,0,0,1-2.41.7,2.92,2.92,0,0,1-2-.72,2.8,2.8,0,0,1-.79-2.16V14.84H290.4l0-1.71h1.37V10.49h2.32v2.64h2.76v1.71h-2.76v4.34a1.48,1.48,0,0,0,.25.95,1,1,0,0,0,.76.27,3.39,3.39,0,0,0,1.37-.39Z"/><path class="cls-3" d="M303.08,14.7a4.56,4.56,0,0,0-1.38-.24,1.82,1.82,0,0,0-.94.21.68.68,0,0,0-.35.64.74.74,0,0,0,.44.69,6.53,6.53,0,0,0,1.39.52,12.12,12.12,0,0,1,1.66.6A3.07,3.07,0,0,1,305,18a2.34,2.34,0,0,1,.48,1.54,2.47,2.47,0,0,1-1.08,2.16,4.65,4.65,0,0,1-2.72.76,6.94,6.94,0,0,1-2.17-.35,5.22,5.22,0,0,1-1.8-1l.81-1.64a4.72,4.72,0,0,0,1.54.87,5.19,5.19,0,0,0,1.71.32,2.06,2.06,0,0,0,1-.23.72.72,0,0,0,.39-.67.82.82,0,0,0-.45-.76,8.33,8.33,0,0,0-1.46-.56,13.35,13.35,0,0,1-1.59-.56,3,3,0,0,1-1.06-.85,2.32,2.32,0,0,1-.45-1.49,2.5,2.5,0,0,1,1-2.16,4.3,4.3,0,0,1,2.6-.75,6.73,6.73,0,0,1,1.88.27,5.94,5.94,0,0,1,1.65.75l-.85,1.7A6.45,6.45,0,0,0,303.08,14.7Z"/><path class="cls-3" d="M166.25,33.77h2.42v12.6h-2.42Z"/><path class="cls-3" d="M186.86,37.65a3.75,3.75,0,0,1,.94,2.7v6h-2.36V41a2.24,2.24,0,0,0-.56-1.61,2.06,2.06,0,0,0-1.54-.59,2.36,2.36,0,0,0-1.78.81,3,3,0,0,0-.65,2v4.76h-2.36V41a2.24,2.24,0,0,0-.56-1.61,2,2,0,0,0-1.53-.59,2.36,2.36,0,0,0-1.79.81,2.92,2.92,0,0,0-.66,2v4.76h-2.34V36.74H174v1.78a3.54,3.54,0,0,1,3.39-1.87,3.57,3.57,0,0,1,2.11.6,3.17,3.17,0,0,1,1.2,1.7,3.55,3.55,0,0,1,3.58-2.3A3.33,3.33,0,0,1,186.86,37.65Z"/><path class="cls-3" d="M205.6,37.65a3.75,3.75,0,0,1,.94,2.7v6h-2.36V41a2.2,2.2,0,0,0-.57-1.61,2,2,0,0,0-1.54-.59,2.35,2.35,0,0,0-1.77.81,2.92,2.92,0,0,0-.66,2v4.76h-2.35V41a2.24,2.24,0,0,0-.56-1.61,2,2,0,0,0-1.53-.59,2.36,2.36,0,0,0-1.79.81,2.92,2.92,0,0,0-.66,2v4.76h-2.34V36.74h2.34v1.78a3.52,3.52,0,0,1,3.38-1.87,3.61,3.61,0,0,1,2.12.6,3.17,3.17,0,0,1,1.2,1.7,3.55,3.55,0,0,1,3.58-2.3A3.33,3.33,0,0,1,205.6,37.65Z"/><path class="cls-3" d="M211.25,33a1.38,1.38,0,0,1,.38,1,1.33,1.33,0,0,1-.38,1,1.33,1.33,0,0,1-1.9,0,1.33,1.33,0,0,1-.38-1,1.38,1.38,0,0,1,.38-1,1.35,1.35,0,0,1,1.9,0Zm-2.1,3.75h2.34v9.63h-2.34Z"/><path class="cls-3" d="M223.19,36.74v8.71a4.49,4.49,0,0,1-.62,2.38,4.16,4.16,0,0,1-1.77,1.57,6.12,6.12,0,0,1-2.65.55,7.08,7.08,0,0,1-4.07-1.28L215,47a5,5,0,0,0,3,1,3,3,0,0,0,2.06-.67,2.28,2.28,0,0,0,.77-1.82V44.37a3.22,3.22,0,0,1-1.26,1.12,4,4,0,0,1-1.8.39,4.21,4.21,0,0,1-2.23-.58A4,4,0,0,1,214,43.66a5.23,5.23,0,0,1-.54-2.42,5.1,5.1,0,0,1,.54-2.39,3.94,3.94,0,0,1,1.52-1.61,4.31,4.31,0,0,1,2.23-.58,4,4,0,0,1,1.79.4,3.34,3.34,0,0,1,1.27,1.12V36.74Zm-3.05,6.54a3.14,3.14,0,0,0,0-4,2.41,2.41,0,0,0-1.85-.76,2.37,2.37,0,0,0-1.84.77,3.06,3.06,0,0,0,0,4,2.62,2.62,0,0,0,3.69,0Z"/><path class="cls-3" d="M229.61,37.16a3.82,3.82,0,0,1,1.95-.51v2.26a3.2,3.2,0,0,0-2.39.7,2.67,2.67,0,0,0-.89,2.11v4.65h-2.34V36.74h2.34v1.85A3.54,3.54,0,0,1,229.61,37.16Z"/><path class="cls-3" d="M238.54,46.37V45.2a3.18,3.18,0,0,1-1.29.95,4.73,4.73,0,0,1-1.82.32,3.89,3.89,0,0,1-1.78-.38A2.83,2.83,0,0,1,232.48,45a2.89,2.89,0,0,1-.42-1.53,2.56,2.56,0,0,1,1-2.12,4.26,4.26,0,0,1,2.7-.78h2.8v-.25A1.62,1.62,0,0,0,238,39a2.5,2.5,0,0,0-1.62-.47,5.58,5.58,0,0,0-2.87.9l-.84-1.62a10.69,10.69,0,0,1,2.06-.91,7.8,7.8,0,0,1,2.17-.27,4.27,4.27,0,0,1,2.9.9,3.21,3.21,0,0,1,1.06,2.52l0,6.3Zm-.83-2.17a1.66,1.66,0,0,0,.81-1.18v-.87h-2.43a2.67,2.67,0,0,0-1.37.28,1,1,0,0,0-.44.91,1.17,1.17,0,0,0,.45,1,2,2,0,0,0,1.26.36A3,3,0,0,0,237.71,44.2Z"/><path class="cls-3" d="M251.88,37.65a3.71,3.71,0,0,1,1,2.7v6h-2.35V41a2.19,2.19,0,0,0-.58-1.59,2.1,2.1,0,0,0-1.57-.59,2.37,2.37,0,0,0-1.84.79,2.92,2.92,0,0,0-.68,2v4.74h-2.34V36.74h2.34v1.8a3.64,3.64,0,0,1,3.46-1.89A3.44,3.44,0,0,1,251.88,37.65Z"/><path class="cls-3" d="M261.1,45.77a4.58,4.58,0,0,1-2.42.7,2.91,2.91,0,0,1-2-.72,2.8,2.8,0,0,1-.79-2.16V38.84h-1.35l0-1.71h1.37V34.49h2.32v2.64h2.75v1.71h-2.75v4.34a1.42,1.42,0,0,0,.25,1,1,1,0,0,0,.76.27,3.43,3.43,0,0,0,1.37-.39Z"/><path class="cls-3" d="M276.59,46.78l-1.9-1.89a5.35,5.35,0,0,1-3.75,1.58,4.68,4.68,0,0,1-2.06-.45,3.71,3.71,0,0,1-1.46-1.28,3.36,3.36,0,0,1-.53-1.85,2.92,2.92,0,0,1,.71-2,7.1,7.1,0,0,1,2-1.46,7.78,7.78,0,0,1-.88-1.52,3.8,3.8,0,0,1-.28-1.36,2.65,2.65,0,0,1,.92-2.1,3.61,3.61,0,0,1,2.45-.8,4,4,0,0,1,1.71.34,2.79,2.79,0,0,1,1.17,1,2.49,2.49,0,0,1,.41,1.42,2.56,2.56,0,0,1-.79,1.93A9.06,9.06,0,0,1,272,39.8c.7.76,1.51,1.61,2.45,2.53a10.16,10.16,0,0,0,1-2.19l1.53,1.13a9.34,9.34,0,0,1-1.26,2.34l2,2Zm-3.16-3.13c-1.23-1.21-2.2-2.23-2.92-3a4.85,4.85,0,0,0-1.24,1,1.67,1.67,0,0,0-.43,1.14,1.83,1.83,0,0,0,.63,1.44,2.28,2.28,0,0,0,1.56.56A3.52,3.52,0,0,0,273.43,43.65Zm-2.33-5a6.78,6.78,0,0,0,1.55-1,1.62,1.62,0,0,0,.54-1.21,1.18,1.18,0,0,0-.39-.93,1.4,1.4,0,0,0-1-.35,1.53,1.53,0,0,0-1.11.41,1.42,1.42,0,0,0-.42,1.05A3.82,3.82,0,0,0,271.1,38.63Z"/><path class="cls-3" d="M290.87,46.37l-2.18-3.73-.45,0H285.4v3.71H283V33.77h5.26A5.65,5.65,0,0,1,292,34.9a4,4,0,0,1,1.33,3.2,4.67,4.67,0,0,1-.64,2.52,3.85,3.85,0,0,1-1.86,1.57l2.77,4.18Zm-5.47-5.84h2.84a3.19,3.19,0,0,0,2.09-.59,2.15,2.15,0,0,0,.72-1.76,2.08,2.08,0,0,0-.72-1.73,3.25,3.25,0,0,0-2.09-.58H285.4Z"/><path class="cls-3" d="M303.39,38a5.39,5.39,0,0,1,1.16,3.69c0,.31,0,.54,0,.7h-7.11a2.69,2.69,0,0,0,2.75,2.2,3.82,3.82,0,0,0,1.42-.28,3.53,3.53,0,0,0,1.17-.8L304,44.8A4.73,4.73,0,0,1,302.27,46a5.89,5.89,0,0,1-2.3.44,5.34,5.34,0,0,1-2.6-.62,4.19,4.19,0,0,1-1.73-1.71,5.61,5.61,0,0,1,0-5.11,4.36,4.36,0,0,1,1.73-1.73,5.09,5.09,0,0,1,2.54-.63A4.38,4.38,0,0,1,303.39,38Zm-1,2.82a2.35,2.35,0,0,0-.71-1.69,2.45,2.45,0,0,0-1.76-.63,2.51,2.51,0,0,0-1.72.62,2.78,2.78,0,0,0-.86,1.7Z"/><path class="cls-3" d="M309.58,35.22a1.14,1.14,0,0,0-.35.92v1h2.41v1.71h-2.41v7.53h-2.34V38.84h-1.26V37.13h1.26v-.92a3.24,3.24,0,0,1,.47-1.8,2.9,2.9,0,0,1,1.25-1.13,3.89,3.89,0,0,1,1.7-.38,4,4,0,0,1,1.76.42l-.41,1.89a3.22,3.22,0,0,0-1.19-.29A1.31,1.31,0,0,0,309.58,35.22Z"/><path class="cls-3" d="M322.11,36.74v9.63h-2.35V44.58a3.47,3.47,0,0,1-3.35,1.88,3.37,3.37,0,0,1-2.56-1,3.79,3.79,0,0,1-.93-2.7v-6h2.35v5.34a2.26,2.26,0,0,0,.55,1.59,2,2,0,0,0,1.52.57,2.21,2.21,0,0,0,1.77-.79,3,3,0,0,0,.65-2V36.74Z"/><path class="cls-3" d="M333.83,36.74v8.71a4.4,4.4,0,0,1-.62,2.38,4.08,4.08,0,0,1-1.76,1.57,6.16,6.16,0,0,1-2.66.55,7.11,7.11,0,0,1-4.07-1.28l.94-1.69a5,5,0,0,0,3,1,3.06,3.06,0,0,0,2.06-.67,2.28,2.28,0,0,0,.76-1.82V44.37a3.09,3.09,0,0,1-1.26,1.12,3.92,3.92,0,0,1-1.8.39,4.24,4.24,0,0,1-2.23-.58,4,4,0,0,1-1.51-1.64,5.23,5.23,0,0,1-.54-2.42,5.1,5.1,0,0,1,.54-2.39,3.91,3.91,0,0,1,1.51-1.61,4.33,4.33,0,0,1,2.23-.58,4,4,0,0,1,1.79.4,3.2,3.2,0,0,1,1.27,1.12V36.74Zm-3.05,6.54a3.14,3.14,0,0,0,0-4,2.61,2.61,0,0,0-3.69,0,3.06,3.06,0,0,0,0,4,2.62,2.62,0,0,0,3.69,0Z"/><path class="cls-3" d="M344.06,38a5.34,5.34,0,0,1,1.17,3.69c0,.31,0,.54,0,.7H338.1a2.69,2.69,0,0,0,2.75,2.2,3.77,3.77,0,0,0,1.41-.28,3.47,3.47,0,0,0,1.18-.8l1.26,1.31A4.73,4.73,0,0,1,343,46a5.89,5.89,0,0,1-2.3.44,5.34,5.34,0,0,1-2.6-.62,4.19,4.19,0,0,1-1.73-1.71,5.53,5.53,0,0,1,0-5.11,4.36,4.36,0,0,1,1.73-1.73,5.09,5.09,0,0,1,2.54-.63A4.35,4.35,0,0,1,344.06,38Zm-1,2.82a2.3,2.3,0,0,0-.7-1.69,2.45,2.45,0,0,0-1.76-.63,2.49,2.49,0,0,0-1.72.62,2.78,2.78,0,0,0-.86,1.7Z"/><path class="cls-3" d="M354.72,38a5.34,5.34,0,0,1,1.16,3.69,6.57,6.57,0,0,1,0,.7h-7.11a2.8,2.8,0,0,0,1,1.61,2.76,2.76,0,0,0,1.79.59,3.77,3.77,0,0,0,1.41-.28,3.68,3.68,0,0,0,1.18-.8l1.26,1.31A4.73,4.73,0,0,1,353.61,46a5.89,5.89,0,0,1-2.3.44,5.34,5.34,0,0,1-2.6-.62A4.28,4.28,0,0,1,347,44.13a5.17,5.17,0,0,1-.61-2.55A5.24,5.24,0,0,1,347,39a4.39,4.39,0,0,1,1.74-1.73,5.06,5.06,0,0,1,2.54-.63A4.36,4.36,0,0,1,354.72,38Zm-1,2.82a2.34,2.34,0,0,0-.7-1.69,2.73,2.73,0,0,0-3.48,0,2.73,2.73,0,0,0-.86,1.7Z"/><path class="cls-3" d="M215.27,70.37l-1.12-2.67H208l-1.12,2.67h-2.5l5.52-12.6h2.51l5.45,12.6Zm-6.41-4.74h4.43l-2.2-5.29Z"/><path class="cls-3" d="M228.14,57V70.37H225.8V68.82a3.51,3.51,0,0,1-1.34,1.23,4.12,4.12,0,0,1-1.9.42,4.49,4.49,0,0,1-2.4-.62,4.19,4.19,0,0,1-1.62-1.74,5.64,5.64,0,0,1-.57-2.59,5.56,5.56,0,0,1,.56-2.54,4.18,4.18,0,0,1,1.61-1.72,4.54,4.54,0,0,1,2.36-.61,4.07,4.07,0,0,1,1.93.43,3.7,3.7,0,0,1,1.37,1.24V57ZM225,67.69a3.29,3.29,0,0,0,0-4.23,2.76,2.76,0,0,0-3.93,0,3.29,3.29,0,0,0,0,4.23,2.76,2.76,0,0,0,3.93,0Z"/><path class="cls-3" d="M229.67,60.75h2.45l2.52,7.32,2.46-7.32h2.36l-3.67,9.63h-2.41Z"/><path class="cls-3" d="M247.32,61.28A4.4,4.4,0,0,1,249.1,63a5,5,0,0,1,.64,2.54,5.19,5.19,0,0,1-.64,2.58,4.4,4.4,0,0,1-1.78,1.72,6,6,0,0,1-5.3,0,4.39,4.39,0,0,1-1.8-1.72,5.19,5.19,0,0,1-.63-2.58,5,5,0,0,1,.63-2.54,4.39,4.39,0,0,1,1.8-1.72,6,6,0,0,1,5.3,0Zm-4.62,2.19a3.3,3.3,0,0,0,0,4.21,2.57,2.57,0,0,0,2,.81,2.53,2.53,0,0,0,1.94-.81,3.3,3.3,0,0,0,0-4.21,2.53,2.53,0,0,0-1.94-.81A2.57,2.57,0,0,0,242.7,63.47Z"/><path class="cls-3" d="M255.88,62.72a2.45,2.45,0,0,0-1.9.79,2.89,2.89,0,0,0-.73,2.05,3,3,0,0,0,.73,2.09,2.45,2.45,0,0,0,1.9.79,3.07,3.07,0,0,0,2.59-1.13l1.46,1.2A4.27,4.27,0,0,1,258.22,70a5.65,5.65,0,0,1-2.47.51,5.13,5.13,0,0,1-2.53-.62,4.29,4.29,0,0,1-1.72-1.71,5.17,5.17,0,0,1-.61-2.55,5.29,5.29,0,0,1,.62-2.58,4.28,4.28,0,0,1,1.73-1.72,5.18,5.18,0,0,1,2.55-.62,5.81,5.81,0,0,1,2.34.46,4.25,4.25,0,0,1,1.69,1.31l-1.42,1.35A3.26,3.26,0,0,0,255.88,62.72Z"/><path class="cls-3" d="M267.27,70.37V69.2a3.21,3.21,0,0,1-1.3,1,4.64,4.64,0,0,1-1.81.32,3.86,3.86,0,0,1-1.78-.38A2.92,2.92,0,0,1,261.2,69a3,3,0,0,1-.41-1.53,2.59,2.59,0,0,1,.95-2.12,4.29,4.29,0,0,1,2.7-.78h2.81v-.25a1.6,1.6,0,0,0-.56-1.32,2.46,2.46,0,0,0-1.62-.47,5.57,5.57,0,0,0-2.86.9l-.84-1.62a10.69,10.69,0,0,1,2.06-.91,7.75,7.75,0,0,1,2.17-.27,4.28,4.28,0,0,1,2.9.9,3.24,3.24,0,0,1,1.06,2.52v6.3Zm-.83-2.17a1.66,1.66,0,0,0,.81-1.18v-.87h-2.43a2.74,2.74,0,0,0-1.38.28,1,1,0,0,0-.44.91,1.18,1.18,0,0,0,.46,1,2,2,0,0,0,1.25.36A3,3,0,0,0,266.44,68.2Z"/><path class="cls-3" d="M276.31,62.72a2.45,2.45,0,0,0-1.9.79,2.89,2.89,0,0,0-.73,2.05,3,3,0,0,0,.73,2.09,2.45,2.45,0,0,0,1.9.79,3.07,3.07,0,0,0,2.59-1.13l1.46,1.2A4.27,4.27,0,0,1,278.65,70a5.65,5.65,0,0,1-2.47.51,5.13,5.13,0,0,1-2.53-.62,4.29,4.29,0,0,1-1.72-1.71,5.17,5.17,0,0,1-.61-2.55,5.29,5.29,0,0,1,.62-2.58,4.28,4.28,0,0,1,1.73-1.72,5.18,5.18,0,0,1,2.55-.62,5.81,5.81,0,0,1,2.34.46,4.25,4.25,0,0,1,1.69,1.31l-1.42,1.35A3.26,3.26,0,0,0,276.31,62.72Z"/><path class="cls-3" d="M285.19,73.36a3.33,3.33,0,0,1-2,.61,3.64,3.64,0,0,1-1.27-.21,4,4,0,0,1-1.12-.66l1-1.78a3.09,3.09,0,0,0,.63.37,1.63,1.63,0,0,0,.62.12,1.48,1.48,0,0,0,1.4-1l.29-.63-4-9.46h2.43l2.74,7,2.5-7h2.36l-4.32,10.83A3.77,3.77,0,0,1,285.19,73.36Z"/><path class="cls-3" d="M304.2,60.2a4.25,4.25,0,0,0-4,.12,4,4,0,0,0-1.53,1.54,4.41,4.41,0,0,0,0,4.3,4.07,4.07,0,0,0,1.53,1.55,4.16,4.16,0,0,0,2.14.57,4.43,4.43,0,0,0,1.81-.4,5.07,5.07,0,0,0,1.61-1.1l1.42,1.59a7.52,7.52,0,0,1-2.3,1.59,6.57,6.57,0,0,1-6-.28,6.43,6.43,0,0,1,0-11.23,6.87,6.87,0,0,1,3.38-.85,6.78,6.78,0,0,1,2.64.54,6.5,6.5,0,0,1,2.22,1.5l-1.41,1.76A4.7,4.7,0,0,0,304.2,60.2Z"/><path class="cls-3" d="M315.68,61.28A4.34,4.34,0,0,1,317.46,63a4.92,4.92,0,0,1,.64,2.54,5.09,5.09,0,0,1-.64,2.58,4.34,4.34,0,0,1-1.78,1.72,5.48,5.48,0,0,1-2.64.62,5.59,5.59,0,0,1-2.66-.62,4.3,4.3,0,0,1-1.79-1.72,5.09,5.09,0,0,1-.64-2.58,4.92,4.92,0,0,1,.64-2.54,4.3,4.3,0,0,1,1.79-1.72,5.59,5.59,0,0,1,2.66-.62A5.48,5.48,0,0,1,315.68,61.28Zm-4.62,2.19a3.33,3.33,0,0,0,0,4.21,2.6,2.6,0,0,0,2,.81,2.55,2.55,0,0,0,1.95-.81,3.33,3.33,0,0,0,0-4.21,2.55,2.55,0,0,0-1.95-.81A2.6,2.6,0,0,0,311.06,63.47Z"/><path class="cls-3" d="M325.82,70.37V69.2a3.18,3.18,0,0,1-1.29,1,4.73,4.73,0,0,1-1.82.32,3.84,3.84,0,0,1-1.77-.38A2.86,2.86,0,0,1,319.76,69a2.89,2.89,0,0,1-.42-1.53,2.56,2.56,0,0,1,1-2.12,4.26,4.26,0,0,1,2.7-.78h2.8v-.25a1.62,1.62,0,0,0-.55-1.32,2.46,2.46,0,0,0-1.62-.47,5.61,5.61,0,0,0-2.87.9l-.84-1.62a11,11,0,0,1,2.06-.91,7.8,7.8,0,0,1,2.17-.27,4.29,4.29,0,0,1,2.91.9,3.2,3.2,0,0,1,1.05,2.52l0,6.3ZM325,68.2a1.67,1.67,0,0,0,.8-1.18v-.87h-2.42a2.69,2.69,0,0,0-1.38.28,1,1,0,0,0-.44.91,1.15,1.15,0,0,0,.46,1,2,2,0,0,0,1.25.36A3.07,3.07,0,0,0,325,68.2Z"/><path class="cls-3" d="M330.84,57h2.34V70.37h-2.34Z"/><path class="cls-3" d="M338.3,57a1.42,1.42,0,0,1,.38,1,1.37,1.37,0,0,1-.38,1,1.3,1.3,0,0,1-1,.4,1.28,1.28,0,0,1-.95-.4,1.37,1.37,0,0,1-.38-1,1.42,1.42,0,0,1,.38-1,1.27,1.27,0,0,1,.95-.39A1.29,1.29,0,0,1,338.3,57Zm-2.11,3.75h2.34v9.63h-2.34Z"/><path class="cls-3" d="M347.06,69.77a4.52,4.52,0,0,1-2.41.7,2.88,2.88,0,0,1-2-.72,2.8,2.8,0,0,1-.8-2.16V62.84h-1.35V61.13h1.36V58.49h2.33v2.64h2.75v1.71h-2.75v4.34a1.42,1.42,0,0,0,.25.95,1,1,0,0,0,.75.27,3.39,3.39,0,0,0,1.37-.39Z"/><path class="cls-3" d="M351,57a1.42,1.42,0,0,1,.37,1,1.37,1.37,0,0,1-.37,1,1.31,1.31,0,0,1-1,.4,1.28,1.28,0,0,1-.95-.4,1.33,1.33,0,0,1-.38-1,1.38,1.38,0,0,1,.38-1,1.27,1.27,0,0,1,.95-.39A1.3,1.3,0,0,1,351,57Zm-2.11,3.75h2.34v9.63H348.9Z"/><path class="cls-3" d="M361,61.28A4.36,4.36,0,0,1,362.77,63a5,5,0,0,1,.64,2.54,5.19,5.19,0,0,1-.64,2.58A4.36,4.36,0,0,1,361,69.84a5.46,5.46,0,0,1-2.63.62,5.6,5.6,0,0,1-2.67-.62,4.42,4.42,0,0,1-1.79-1.72,5.19,5.19,0,0,1-.64-2.58,5,5,0,0,1,.64-2.54,4.42,4.42,0,0,1,1.79-1.72,5.6,5.6,0,0,1,2.67-.62A5.46,5.46,0,0,1,361,61.28Zm-4.61,2.19a3.3,3.3,0,0,0,0,4.21,2.57,2.57,0,0,0,2,.81,2.53,2.53,0,0,0,1.94-.81,3.3,3.3,0,0,0,0-4.21,2.53,2.53,0,0,0-1.94-.81A2.57,2.57,0,0,0,356.37,63.47Z"/><path class="cls-3" d="M373.85,61.65a3.75,3.75,0,0,1,.95,2.7v6h-2.36V65a2.18,2.18,0,0,0-.57-1.59,2.12,2.12,0,0,0-1.57-.59,2.4,2.4,0,0,0-1.85.79,3,3,0,0,0-.67,2v4.74h-2.34V60.74h2.34v1.8a3.63,3.63,0,0,1,3.46-1.89A3.44,3.44,0,0,1,373.85,61.65Z"/></g></g></svg>